<?xml version="1.0" standalone="no"?>
<!DOCTYPE svg PUBLIC "-//W3C//DTD SVG 20010904//EN"
 "http://www.w3.org/TR/2001/REC-SVG-20010904/DTD/svg10.dtd">
<svg version="1.0" xmlns="http://www.w3.org/2000/svg"
 width="240.000000pt" height="186.000000pt" viewBox="0 0 240.000000 186.000000"
 preserveAspectRatio="xMidYMid meet">

<g transform="translate(0.000000,186.000000) scale(0.100000,-0.100000)"
fill="#000000" stroke="none">
<path d="M1075 1626 c-217 -41 -399 -181 -495 -381 -94 -195 -92 -400 7 -604
37 -78 59 -109 127 -176 67 -67 98 -90 176 -128 203 -99 410 -101 605 -7 188
91 320 251 372 450 23 88 22 254 -1 340 -95 349 -444 573 -791 506z m284 -31
c223 -53 433 -263 486 -486 21 -92 19 -239 -5 -334 -88 -342 -451 -557 -800
-473 -72 17 -185 73 -251 123 -108 84 -198 219 -235 356 -28 100 -24 262 9
364 71 218 241 383 459 446 80 22 248 25 337 4z"/>
<path d="M1042 1570 c-124 -33 -197 -75 -293 -170 -95 -93 -142 -175 -174
-300 -25 -96 -17 -272 17 -362 71 -189 207 -325 396 -396 90 -33 255 -42 357
-18 125 30 210 78 305 175 96 97 138 170 170 297 87 338 -123 687 -466 774
-98 25 -215 25 -312 0z m104 -62 c5 -7 2 -9 -8 -5 -19 7 -38 -11 -31 -29 6
-17 30 -18 36 -1 3 7 6 4 6 -6 2 -30 -53 -19 -57 12 -5 34 37 57 54 29z m49 2
c-17 -7 -17 -9 -2 -9 9 -1 17 -5 17 -11 0 -5 -8 -11 -17 -11 -17 -1 -17 -2 0
-6 26 -7 21 -23 -8 -23 -22 0 -25 4 -25 35 0 32 3 35 28 34 24 0 25 -1 7 -9z
m90 -38 l-8 -27 -7 25 c-4 14 -2 31 4 39 14 18 20 -2 11 -37z m-201 -5 c5 -21
3 -28 -5 -25 -7 2 -15 20 -17 39 -4 40 12 30 22 -14z m264 8 l4 -29 17 23 c21
27 46 20 38 -10 -6 -22 -3 -23 23 -7 24 15 46 -1 37 -27 -9 -23 -38 -31 -51
-14 -6 8 -18 13 -28 11 -9 -2 -19 2 -23 7 -3 6 -17 11 -30 11 -31 0 -38 12
-25 45 13 33 34 28 38 -10z m-302 3 c10 -12 13 -18 5 -13 -11 6 -13 3 -9 -13
7 -25 -7 -30 -16 -6 -6 17 -8 54 -3 54 2 0 12 -10 23 -22z m-36 -24 c12 -31
12 -34 2 -34 -4 0 -13 14 -19 30 -6 17 -7 30 -2 30 5 0 14 -12 19 -26z m-40 5
c0 -5 -4 -8 -9 -4 -5 3 -12 1 -16 -5 -4 -6 5 -10 20 -10 34 0 31 -34 -3 -36
-19 -1 -19 -1 -2 3 11 2 20 9 20 14 0 6 -9 8 -19 4 -22 -7 -36 9 -27 30 6 17
36 20 36 4z m416 -119 c89 -43 161 -115 205 -205 33 -67 34 -74 34 -185 0
-109 -2 -119 -32 -182 -61 -130 -184 -224 -326 -248 -282 -49 -545 210 -498
492 21 125 101 248 200 306 86 50 137 63 247 60 91 -3 107 -7 170 -38z m-671
-274 c37 -56 -36 -115 -87 -69 -20 18 -24 63 -6 81 21 21 76 15 93 -12z m1039
-1 c33 -2 49 -25 18 -25 -11 0 -34 -11 -50 -25 -17 -14 -33 -25 -36 -25 -13 0
-5 28 9 34 21 8 19 24 -5 31 -32 10 -24 28 8 19 15 -4 40 -8 56 -9z m-51 -105
c4 -16 14 -20 51 -20 25 0 46 -4 46 -10 0 -5 -22 -10 -49 -10 -43 0 -49 -3
-53 -24 -4 -22 -1 -24 44 -30 27 -4 48 -12 46 -17 -4 -13 -7 -13 -68 -5 -47 6
-59 14 -43 30 4 3 6 29 4 56 -2 49 12 69 22 30z m-1063 1 c0 -6 -4 -13 -10
-16 -14 -9 -12 -47 2 -43 7 3 15 15 18 28 3 13 13 28 22 33 36 23 67 -45 33
-73 -21 -18 -29 -6 -13 19 9 16 10 23 1 32 -9 9 -14 4 -20 -22 -15 -56 -72
-51 -73 7 0 20 17 44 32 44 4 0 8 -4 8 -9z m78 -110 c6 -1 12 -7 12 -15 0 -17
-94 -79 -99 -65 -2 6 1 15 7 21 13 13 3 48 -14 48 -8 0 -14 6 -14 13 0 11 11
12 48 6 26 -4 53 -8 60 -8z m982 -25 c0 -8 -7 -16 -15 -20 -8 -3 -15 -10 -15
-16 0 -18 21 -10 44 17 20 24 26 25 40 14 29 -24 10 -91 -25 -91 -15 0 -10 20
6 26 15 6 22 44 8 44 -4 0 -17 -12 -29 -27 -36 -45 -82 -7 -50 42 18 27 36 33
36 11z m-955 -46 c3 -6 -1 -13 -9 -16 -19 -7 -21 -24 -3 -24 7 0 22 -7 33 -16
18 -15 17 -15 -13 -10 -28 5 -35 1 -50 -24 -20 -34 -38 -40 -29 -10 20 65 20
61 -8 54 -42 -10 -31 13 17 35 50 23 54 24 62 11z m934 -44 c7 -8 23 -17 37
-20 32 -9 25 -32 -8 -28 -33 4 -45 -23 -17 -38 11 -6 17 -15 13 -21 -3 -6 -24
1 -51 16 -44 24 -63 31 -50 19 3 -4 -3 -18 -14 -33 -23 -29 -8 -43 20 -17 27
24 35 19 17 -9 -25 -37 -8 -55 19 -21 13 16 25 24 28 19 4 -5 -6 -24 -21 -42
l-27 -32 -44 37 c-47 41 -48 38 -16 -43 21 -50 -1 -59 -55 -23 -24 16 -46 27
-48 25 -2 -2 5 -19 17 -38 22 -37 27 -57 12 -57 -8 0 -65 92 -59 94 2 1 13 7
26 14 20 11 27 10 52 -8 34 -24 34 -24 19 18 -10 28 -7 35 35 86 25 31 51 66
57 78 20 39 40 46 58 24z m-873 -70 c6 -16 -54 -109 -65 -101 -5 2 -6 16 -4
30 4 17 0 26 -11 30 -51 16 -50 18 4 35 70 23 70 23 76 6z m104 -104 c15 -12
21 -26 18 -42 l-4 -25 -12 28 c-14 32 -46 36 -62 8 -14 -27 -2 -52 24 -49 11
2 23 -1 26 -7 9 -17 -47 -17 -64 0 -24 24 -20 61 10 84 32 26 36 26 64 3z m60
-42 c0 -12 -27 -69 -42 -87 -6 -7 -14 -10 -19 -7 -5 3 3 28 17 55 26 46 44 62
44 39z m474 -59 c9 -24 13 -48 9 -52 -5 -5 -26 3 -48 18 -33 22 -37 23 -30 7
16 -41 18 -57 5 -52 -7 2 -21 25 -31 51 -22 56 -10 69 33 37 34 -25 45 -21 28
9 -11 22 -4 49 10 34 4 -4 15 -28 24 -52z m-410 34 c20 -9 34 -20 31 -25 -3
-5 -12 -7 -20 -4 -10 4 -20 -7 -31 -35 -17 -43 -41 -58 -30 -18 16 56 18 77 7
77 -6 0 -11 5 -11 10 0 14 11 13 54 -5z m75 -42 l13 -28 15 23 c9 12 19 22 24
22 16 0 10 -26 -10 -44 -11 -10 -21 -27 -23 -39 -5 -36 -26 -30 -31 10 -2 21
-8 48 -12 61 -10 32 9 28 24 -5z m215 5 c11 -43 7 -86 -10 -92 -54 -21 -84 4
-84 68 0 51 18 44 26 -10 5 -39 9 -45 28 -42 19 3 21 8 18 51 -4 48 11 65 22
25z"/>
<path d="M1380 1470 c0 -5 5 -10 10 -10 6 0 10 5 10 10 0 6 -4 10 -10 10 -5 0
-10 -4 -10 -10z"/>
<path d="M1315 1460 c-3 -5 -1 -10 4 -10 6 0 11 5 11 10 0 6 -2 10 -4 10 -3 0
-8 -4 -11 -10z"/>
<path d="M1370 1440 c0 -5 5 -10 10 -10 6 0 10 5 10 10 0 6 -4 10 -10 10 -5 0
-10 -4 -10 -10z"/>
<path d="M1433 1435 c-9 -25 4 -29 17 -6 7 15 7 21 0 21 -6 0 -13 -7 -17 -15z"/>
<path d="M1090 1346 c-116 -33 -211 -113 -262 -223 -62 -133 -46 -306 40 -418
88 -115 209 -171 356 -163 322 17 495 377 310 645 -93 135 -283 203 -444 159z
m254 -36 c82 -31 185 -132 214 -213 76 -202 -4 -405 -196 -499 -61 -30 -74
-33 -162 -33 -86 0 -101 3 -162 32 -85 40 -151 106 -191 191 -29 61 -32 76
-32 162 0 87 3 101 33 162 93 190 298 272 496 198z"/>
<path d="M970 1224 c0 -3 5 -15 11 -27 9 -18 9 -20 -2 -9 -16 14 -39 16 -39 2
0 -5 11 -12 25 -16 31 -8 24 -20 -15 -29 -24 -5 -30 -12 -30 -32 0 -25 0 -24
42 11 44 38 43 38 95 -7 12 -11 19 -25 17 -32 -3 -7 -1 -16 5 -20 6 -3 11 -11
11 -18 0 -8 -3 -8 -12 1 -14 14 -38 16 -38 2 0 -5 11 -12 25 -16 34 -8 31 -21
-6 -29 -30 -7 -44 -24 -37 -45 2 -6 22 5 44 24 l41 35 43 -36 c39 -34 42 -35
38 -12 -2 17 -12 26 -35 33 -36 10 -44 26 -14 26 21 0 37 17 27 27 -4 4 -12 1
-18 -5 -19 -19 -30 -14 -18 9 7 11 9 23 6 26 -3 4 -11 -8 -17 -25 -11 -32 -27
-44 -26 -19 2 73 -3 87 -40 103 l-38 16 28 10 c27 10 33 19 20 31 -3 4 -15 0
-25 -10 -10 -9 -18 -11 -18 -5 0 6 5 14 10 17 12 8 13 25 1 25 -4 0 -13 -15
-18 -32 l-11 -33 -7 33 c-4 17 -11 32 -16 32 -5 0 -9 -3 -9 -6z"/>
<path d="M1002 1028 l-2 -118 -40 0 c-39 0 -40 -1 -40 -35 0 -34 1 -35 39 -35
39 0 40 1 44 38 l4 37 1 -37 c2 -38 2 -38 46 -38 43 0 45 1 49 33 2 17 2 14 0
-8 -12 -100 -8 -153 11 -174 25 -28 79 -28 104 -1 l19 20 18 -20 c21 -23 67
-26 85 -5 10 13 7 14 -25 12 -43 -2 -61 17 -52 55 8 32 30 41 62 26 19 -9 25
-19 25 -44 0 -64 71 -91 113 -42 14 16 17 39 17 119 l0 99 -65 0 -65 0 0 90 0
90 -60 0 -60 0 0 -90 0 -90 -59 0 -60 0 -4 43 -4 42 -1 -42 -2 -43 -45 0 -44
0 -4 118 -3 117 -2 -117z m312 16 c9 -8 16 -19 16 -24 0 -10 -29 -40 -39 -40
-13 0 -31 24 -31 40 0 16 18 40 31 40 4 0 15 -7 23 -16z m-109 -209 c27 -26
33 -72 14 -108 -15 -28 -28 -37 -56 -37 -51 0 -73 102 -31 147 27 29 43 29 73
-2z m145 -26 c0 -29 -1 -29 -24 -14 -17 11 -30 13 -48 6 -22 -8 -27 -6 -36 14
-11 23 -10 24 36 27 64 4 72 0 72 -33z m100 -44 l0 -75 -34 0 c-41 0 -46 11
-46 91 l0 59 40 0 40 0 0 -75z"/>
<path d="M642 1061 c-25 -16 -9 -46 26 -49 28 -3 32 0 32 21 0 32 -30 46 -58
28z"/>
<path d="M660 825 c0 -16 16 -20 24 -6 3 5 -1 11 -9 15 -9 3 -15 0 -15 -9z"/>
<path d="M1636 703 c-8 -20 15 -37 26 -20 12 19 9 37 -6 37 -8 0 -17 -8 -20
-17z"/>
<path d="M751 641 c-8 -5 -9 -11 -3 -15 5 -3 15 1 22 9 14 16 3 20 -19 6z"/>
</g>
</svg>
